<?xml version="1.0" standalone="yes"?>
<svg xmlns="http://www.w3.org/2000/svg" width="600" height="250">
<path style="fill:none; stroke:none;" d="M0 0L0 250L600 250L600 0L0 0z"/>
<path style="fill:#ffdac1; stroke:none;" d="M81 11C84.9587 12.6611 89.7366 12 94 12C90.0413 10.3389 85.2634 11 81 11z"/>
<path style="fill:#ffc59f; stroke:none;" d="M94 11C99.7073 13.3949 107.846 12 114 12L156 12C150.293 9.60513 142.154 11 136 11L94 11z"/>
<path style="fill:#ffdcc3; stroke:none;" d="M156 11C158.89 12.2129 161.874 11.9983 165 12C162.11 10.7871 159.126 11.0017 156 11z"/>
<path style="fill:#fff1e7; stroke:none;" d="M165 11C167.332 11.9845 169.457 11.9813 172 12C169.668 11.0155 167.543 11.0187 165 11z"/>
<path style="fill:#ffe5d2; stroke:none;" d="M68 12C70.3316 12.9845 72.4566 12.9813 75 13C72.6684 12.0155 70.5434 12.0187 68 12z"/>
<path style="fill:#ffbc8f; stroke:none;" d="M75 12.4244C63.7708 13.8988 52.2887 14.4715 42 19.8904C19.5896 31.6936 14.5007 53.7788 12.9105 77C11.4773 97.9289 12 118.993 12 140C12 165.339 9.454 197.219 26.8079 217.961C36.8103 229.916 51.2231 234.183 66 236.75C83.1718 239.733 101.602 238 119 238C140.477 238 162.709 239.655 184 236.572C192.464 235.346 201.359 233.503 209 229.508C243.25 211.599 238 166.517 238 134L238 106C238 82.6815 240.647 54.9772 226.073 35C214.619 19.3001 196.439 14.3964 178 12.9144C157.111 11.2354 135.977 12 115 12C101.887 12 88.0064 10.7166 75 12.4244z"/>
<path style="fill:#ffdbc1; stroke:none;" d="M174 12C175.769 12.7789 177.036 12.9124 179 13C177.231 12.2211 175.964 12.0876 174 12z"/>
<path style="fill:#ffe7d5; stroke:none;" d="M62.6667 13.3333C62.2222 13.7778 63.2778 13.7222 63.3333 13.6667C63.7778 13.2222 62.7222 13.2778 62.6667 13.3333z"/>
<path style="fill:#ffd8bd; stroke:none;" d="M184 13C185.248 13.6848 185.549 13.7488 187 14C185.752 13.3152 185.452 13.2512 184 13z"/>
<path style="fill:#ffe1cf; stroke:none;" d="M57.6667 14.3333C57.2223 14.7778 58.2778 14.7222 58.3333 14.6667C58.7778 14.2222 57.7222 14.2778 57.6667 14.3333z"/>
<path style="fill:#ffddc5; stroke:none;" d="M190.667 14.3333C190.222 14.7778 191.278 14.7222 191.333 14.6667C191.778 14.2222 190.722 14.2778 190.667 14.3333z"/>
<path style="fill:#ffeadc; stroke:none;" d="M195.667 15.3333C195.222 15.7778 196.278 15.7222 196.333 15.6667C196.778 15.2222 195.722 15.2778 195.667 15.3333z"/>
<path style="fill:#ffd4b7; stroke:none;" d="M50.6667 16.3333C50.2223 16.7777 51.2777 16.7223 51.3333 16.6667C51.7778 16.2222 50.7222 16.2778 50.6667 16.3333z"/>
<path style="fill:#000000; stroke:none;" d="M401 26L401 40L394 40C396.452 41.9322 398.939 42.3961 402 43C400.022 49.6927 400.974 57.7479 404 64C406.102 58.1395 404 48.4318 404 42L411 42L411 40L404 40L403 26L401 26M256 28L256 221L258 221L258 28L256 28z"/>
<path style="fill:#ffe9db; stroke:none;" d="M86 30C92.194 32.5991 101.314 31 108 31L156 31C149.806 28.4009 140.686 30 134 30L86 30z"/>
<path style="fill:#ffd5b8; stroke:none;" d="M156 30C158.613 31.0977 161.164 30.9928 164 31C161.387 29.9023 158.835 30.0072 156 30z"/>
<path style="fill:#ffddc5; stroke:none;" d="M71 31C72.5061 31.683 73.3148 31.8259 75 32C73.494 31.317 72.6852 31.1741 71 31z"/>
<path style="fill:#F7F7F7; stroke:none;" d="M75 31.4244C63.928 32.896 51.7207 34.3674 43.3009 42.4645C35.0697 50.3803 33.1384 62.1963 31.8449 73C29.0647 96.2214 31 120.608 31 144C31 157.687 30.9846 171.497 33.4244 185C34.6284 191.664 36.1089 198.556 40.3904 203.999C49.5707 215.67 63.3652 216.867 77 218.17C95.1809 219.907 113.724 219 132 219C148.208 219 164.928 219.991 181 217.7C190.603 216.331 202.036 213.544 208.671 205.957C215.927 197.66 216.907 186.431 218.155 176C221.166 150.84 219 124.345 219 99C219 81.6537 220.973 59.5539 209.471 45.0147C201.371 34.7768 188.024 33.4425 176 31.7292C159.114 29.3231 141.049 31 124 31C107.98 31 90.8823 29.3135 75 31.4244z"/>
<path style="fill:#ffdec9; stroke:none;" d="M174 31C175.248 31.6848 175.549 31.7488 177 32C175.752 31.3152 175.452 31.2512 174 31z"/>
<path style="fill:#ffd7bd; stroke:none;" d="M65.6667 32.3333C65.2222 32.7778 66.2778 32.7222 66.3333 32.6667C66.7777 32.2223 65.7222 32.2778 65.6667 32.3333z"/>
<path style="fill:#ffe7d7; stroke:none;" d="M181 32C182.248 32.6848 182.548 32.7488 184 33C182.752 32.3152 182.452 32.2512 181 32z"/>
<path style="fill:#ffe4d2; stroke:none;" d="M61.6667 33.3333C61.2222 33.7778 62.2778 33.7222 62.3333 33.6667C62.7778 33.2222 61.7222 33.2778 61.6667 33.3333z"/>
<path style="fill:#ffdbc3; stroke:none;" d="M187 33C188.248 33.6848 188.548 33.7488 190 34C188.752 33.3152 188.452 33.2512 187 33z"/>
<path style="fill:#000000; stroke:none;" d="M302 62C295.261 59.1723 286.92 62.5919 281.514 55.8665C276.682 49.855 279.057 33.8532 288.995 34.5463C293.481 34.8591 296.193 40.1817 293.472 43.787C290.733 47.4169 286.227 48.5734 282 48C286.882 53.558 298.165 45.8965 296.547 39.0046C294.715 31.2003 284.889 32.0999 280.649 37.2137C274.164 45.0353 276.732 57.6336 286.004 61.7863C291.555 64.2722 296.334 63.1682 302 62M358 62C351.253 59.1686 343.952 62.472 338.419 55.892C333.15 49.6255 335.263 33.6513 345.985 34.662C350.285 35.0675 352.905 40.238 350.381 43.7863C347.56 47.7529 342.42 48.4323 338 48C344.434 52.7988 357.174 45.556 352.678 37.1088C349.444 31.0312 341.212 32.7062 337.394 37.1088C329.2 46.5583 335.461 60.9245 347 63.3048C350.835 64.0959 354.329 63.0312 358 62M526 62C519.231 59.1595 511.125 62.5129 505.653 55.7863C500.819 49.8439 503.073 33.8559 512.996 34.5463C516.82 34.8123 520.332 39.3103 518.288 42.9059C515.804 47.2754 510.554 48.674 506 48C511.243 53.9693 522.639 45.228 520.482 38.044C518.304 30.7922 508.524 32.5397 504.649 37.2137C498.144 45.0595 500.865 57.426 510.004 61.6474C515.606 64.235 520.244 63.1868 526 62z"/>
<path style="fill:#ffe8d7; stroke:none;" d="M57.6667 34.3333C57.2223 34.7777 58.2778 34.7222 58.3333 34.6667C58.7778 34.2222 57.7222 34.2778 57.6667 34.3333z"/>
<path style="fill:#000000; stroke:none;" d="M366 40C366.001 47.8317 366.434 55.8945 370 63C372.209 56.8387 366.681 50.1366 370.742 44.0548C374.943 37.7648 381.335 39.1948 385.005 45.0046C388.471 50.4898 388 56.797 388 63L390 63C390 55.2126 390.604 39.4995 379.996 37.7577C374.873 36.9165 371.152 41.5529 366 40M446 57C449.227 62.8404 458.673 64.8378 465 63.4522C468.461 62.6943 472.948 60.1638 472.534 56.0116C471.524 45.8807 455.297 51.8043 450.542 45.7222C448.017 42.4922 450.701 39.5782 454.016 38.7639C457.645 37.8725 460.804 39.5107 464 41C460.446 34.9157 444.287 35.7914 447.623 44.8927C450.637 53.1168 463.525 47.6896 468.392 53.4329C471.646 57.2726 467.648 60.5792 463.995 61.466C457.502 63.0425 451.562 59.9112 446 57M534 41C534 49.0358 533.975 56.8152 538 64C539.898 57.812 534.294 51.09 537.873 45.0154C541.879 38.2156 548.819 38.4531 552.772 45.0154C555.957 50.3042 555.996 57.0287 556 63C560.598 56.269 556.842 39.7453 547.985 37.7569C543.133 36.6676 538.815 40.9254 534 41M427 39.5224C422.273 40.4894 417.526 43.3047 415.743 48.0008C412.306 57.0547 421.381 64.8757 430 63.0571C434.773 62.0501 439.134 58.8967 440.413 54C442.524 45.9179 435.091 37.867 427 39.5224z"/>
<path style="fill:none; stroke:none;" d="M426 41.5448C421.922 42.3673 417.846 44.7856 416.693 49.0154C414.851 55.7715 421.228 62.4507 428 61.3735C442.558 59.0576 440.772 38.5648 426 41.5448z"/>
<path style="fill:#000000; stroke:none;" d="M309 42C311.133 49.4055 315.426 56.2077 319 63L321 63C324.404 57.1455 327.139 50.5103 329 44C324.561 47.8157 322.84 53.3113 322 59C314.616 55.3678 315.55 46.0838 309 42M464 42L463 44C464.263 43.0286 464.392 43.3063 464 42z"/>
<path style="fill:#ffd1b3; stroke:none;" d="M16.3333 51.6667C16.2778 51.7222 16.2223 52.7777 16.6667 52.3333C16.7222 52.2778 16.7778 51.2222 16.3333 51.6667z"/>
<path style="fill:#ffd5b9; stroke:none;" d="M234.333 53.6667C234.278 53.7222 234.222 54.7778 234.667 54.3333C234.722 54.2777 234.778 53.2223 234.333 53.6667z"/>
<path style="fill:#ffdcc4; stroke:none;" d="M15.3333 54.6667C15.2778 54.7222 15.2222 55.7778 15.6667 55.3333C15.7223 55.2777 15.7778 54.2222 15.3333 54.6667z"/>
<path style="fill:#ffe0cd; stroke:none;" d="M215.333 56.6667C215.278 56.7222 215.222 57.7778 215.667 57.3333C215.722 57.2777 215.778 56.2223 215.333 56.6667z"/>
<path style="fill:#ffdbc2; stroke:none;" d="M235.333 57.6667C235.278 57.7222 235.222 58.7778 235.667 58.3333C235.722 58.2778 235.778 57.2222 235.333 57.6667z"/>
<path style="fill:#ffe1cd; stroke:none;" d="M216.333 60.6667C216.278 60.7222 216.222 61.7778 216.667 61.3333C216.722 61.2778 216.778 60.2223 216.333 60.6667z"/>
<path style="fill:#ffd7bc; stroke:none;" d="M33.3333 61.6667C33.2777 61.7223 33.2222 62.7777 33.6667 62.3333C33.7222 62.2778 33.7778 61.2222 33.3333 61.6667z"/>
<path style="fill:#ffeadb; stroke:none;" d="M236.333 61.6667C236.278 61.7222 236.222 62.7778 236.667 62.3333C236.722 62.2778 236.778 61.2222 236.333 61.6667z"/>
<path style="fill:#ffd8be; stroke:none;" d="M101 63L102 64L101 63z"/>
<path style="fill:#ff9b59; stroke:none;" d="M102 63C103.769 63.7789 105.036 63.9124 107 64C105.231 63.2211 103.964 63.0876 102 63z"/>
<path style="fill:#ffd5b9; stroke:none;" d="M99 64L100 65L99 64z"/>
<path style="fill:#AF2E42; stroke:none;" d="M76 90C72.8014 87.7758 69.8502 84.4773 66 83.4336C58.4701 81.3926 51.9448 87.2723 54.5887 95C55.7661 98.4412 58.6611 101.392 61.0895 104C64.0885 107.221 67.5644 111.411 72 112.562C77.3886 113.961 81.4001 110.471 85 106.985C90.3171 101.834 95.57 96.5881 100.424 91C104.201 86.6529 110.163 82.4906 112.258 77C115.106 69.5347 109.094 61.6625 101 64.6042C95.8893 66.4615 91.7419 72.2581 88 76C83.6235 80.3765 78.8735 84.4609 76 90z"/>
<path style="fill:#ff9751; stroke:none;" d="M108 64L109 65L108 64z"/>
<path style="fill:#ffd4b5; stroke:none;" d="M217.333 64.6667C217.278 64.7222 217.222 65.7778 217.667 65.3333C217.722 65.2777 217.778 64.2223 217.333 64.6667z"/>
<path style="fill:#ffa567; stroke:none;" d="M98 65L99 66L98 65z"/>
<path style="fill:#ffc39b; stroke:none;" d="M110 65L111 66L110 65z"/>
<path style="fill:#ffd1b3; stroke:none;" d="M32.3333 66.6667C32.2777 66.7223 32.2222 67.7777 32.6667 67.3333C32.7222 67.2778 32.7778 66.2222 32.3333 66.6667z"/>
<path style="fill:#ff9349; stroke:none;" d="M97 66L98 67L97 66z"/>
<path style="fill:#ffc39b; stroke:none;" d="M111 66L112 67L111 66z"/>
<path style="fill:#ff964e; stroke:none;" d="M96 67L97 68L96 67z"/>
<path style="fill:#ffd6ba; stroke:none;" d="M112 67L113 68L112 67z"/>
<path style="fill:#ff9952; stroke:none;" d="M95 68L96 69L95 68z"/>
<path style="fill:#ff9d5c; stroke:none;" d="M94 69L95 70L94 69z"/>
<path style="fill:#ffd3b4; stroke:none;" d="M113 69L114 70L113 69z"/>
<path style="fill:#ffa366; stroke:none;" d="M93 70L94 71L93 70z"/>
<path style="fill:#ff7f2b; stroke:none;" d="M113 70L113 75C113.83 72.9695 113.83 72.0305 113 70z"/>
<path style="fill:#ffa86f; stroke:none;" d="M92 71L93 72L92 71z"/>
<path style="fill:#ffaf77; stroke:none;" d="M91 72L92 73L91 72z"/>
<path style="fill:#ffb481; stroke:none;" d="M90 73L91 74L90 73z"/>
<path style="fill:#ffd5b9; stroke:none;" d="M12 74L12 81C13.0595 78.4657 13.0595 76.5343 12 74z"/>
<path style="fill:#ffbb8c; stroke:none;" d="M89 74L90 75L89 74z"/>
<path style="fill:#ffbe93; stroke:none;" d="M88 75L89 76L88 75z"/>
<path style="fill:#ffb17d; stroke:none;" d="M113 75L114 76L113 75z"/>
<path style="fill:#ffc6a0; stroke:none;" d="M87 76L88 77L87 76z"/>
<path style="fill:#ffcdac; stroke:none;" d="M86 77L87 78L86 77z"/>
<path style="fill:#ff9d58; stroke:none;" d="M112 77L113 78L112 77z"/>
<path style="fill:#ffd1b2; stroke:none;" d="M85 78L86 79L85 78z"/>
<path style="fill:#ffebdd; stroke:none;" d="M238 78L238 85C239.059 82.4657 239.059 80.5343 238 78z"/>
<path style="fill:#ffd6ba; stroke:none;" d="M84 79L85 80L84 79z"/>
<path style="fill:#ffcfae; stroke:none;" d="M111 79L112 80L111 79z"/>
<path style="fill:#ffd7bd; stroke:none;" d="M83 80L84 81L83 80z"/>
<path style="fill:#ffc7a1; stroke:none;" d="M110 80L111 81L110 80z"/>
<path style="fill:#ffbe93; stroke:none;" d="M109 81L110 82L109 81z"/>
<path style="fill:#ffcca7; stroke:none;" d="M59 82L60 83L59 82z"/>
<path style="fill:#ff802b; stroke:none;" d="M60 82C61.769 82.7789 63.0359 82.9124 65 83C63.231 82.2211 61.9641 82.0876 60 82z"/>
<path style="fill:#ffbe94; stroke:none;" d="M65 82L66 83L65 82z"/>
<path style="fill:#ffb687; stroke:none;" d="M108 82L109 83L108 82z"/>
<path style="fill:#ffd1b3; stroke:none;" d="M219 82L219 90C220.161 87.2301 220.161 84.7699 219 82z"/>
<path style="fill:#ffebdd; stroke:none;" d="M11 83L11 96C12.5909 92.2087 12.5909 86.7913 11 83z"/>
<path style="fill:#ffc8a2; stroke:none;" d="M57 83L58 84L57 83z"/>
<path style="fill:#ffae78; stroke:none;" d="M67 83L68 84L67 83z"/>
<path style="fill:#ffb27d; stroke:none;" d="M107 83L108 84L107 83z"/>
<path style="fill:#ffa76b; stroke:none;" d="M56 84L57 85L56 84z"/>
<path style="fill:#ffae77; stroke:none;" d="M106 84L107 85L106 84z"/>
<path style="fill:#ffd1b2; stroke:none;" d="M132 84L133 85L132 84z"/>
<path style="fill:#ff7e28; stroke:none;" d="M133 84C138.217 86.1889 145.381 85 151 85L190 85C184.784 82.8111 177.619 84 172 84L133 84z"/>
<path style="fill:#ffc49c; stroke:none;" d="M190 84L191 85L190 84z"/>
<path style="fill:#ffa060; stroke:none;" d="M55 85L56 86L55 85z"/>
<path style="fill:#ffaa71; stroke:none;" d="M105 85L106 86L105 85z"/>
<path style="fill:#ffc8a5; stroke:none;" d="M130 85L131 86L130 85z"/>
<path style="fill:#AF2E42; stroke:none;" d="M131.059 86.0278C124.439 89.6532 126.285 100.169 133.015 102.347C137.578 103.824 143.263 103 148 103L177 103C182.081 103 188.437 103.975 192.891 100.991C198.653 97.1298 198.002 87.4627 190.96 85.4336C186.422 84.126 180.686 85 176 85L147 85C142.331 85 135.283 83.7143 131.059 86.0278z"/>
<path style="fill:#ffb07b; stroke:none;" d="M192 85L193 86L192 85z"/>
<path style="fill:#ffd0af; stroke:none;" d="M238 85L238 96C239.431 92.59 239.431 88.41 238 85z"/>
<path style="fill:#ffd6b9; stroke:none;" d="M30 86L30 152C32.1889 146.784 31 139.619 31 134L31 102C31 96.9198 31.9806 90.7199 30 86z"/>
<path style="fill:#ffc59f; stroke:none;" d="M54 86L55 87L54 86z"/>
<path style="fill:#ffa468; stroke:none;" d="M104 86L105 87L104 86z"/>
<path style="fill:#ffa467; stroke:none;" d="M129 86L130 87L129 86z"/>
<path style="fill:#ff9f5d; stroke:none;" d="M103 87L104 88L103 87z"/>
<path style="fill:#ffa365; stroke:none;" d="M128 87L129 88L128 87z"/>
<path style="fill:#ffcead; stroke:none;" d="M53 88L54 89L53 88z"/>
<path style="fill:#ff8f42; stroke:none;" d="M76 88L77 89L76 88z"/>
<path style="fill:#ff964e; stroke:none;" d="M102 88L103 89L102 88z"/>
<path style="fill:#ffc39a; stroke:none;" d="M127 88L128 89L127 88z"/>
<path style="fill:#ff9a57; stroke:none;" d="M195 88L196 89L195 88z"/>
<path style="fill:#ff8c3f; stroke:none;" d="M53 89L53 94C53.8299 91.9695 53.8299 91.0305 53 89z"/>
<path style="fill:#ff934b; stroke:none;" d="M75 89L76 90L75 89z"/>
<path style="fill:#ff8f44; stroke:none;" d="M101 89L102 90L101 89z"/>
<path style="fill:#ffd4b8; stroke:none;" d="M196 89L197 90L196 89z"/>
<path style="fill:#ff8c3f; stroke:none;" d="M100 90L101 91L100 90z"/>
<path style="fill:#ffc29a; stroke:none;" d="M126 90L127 91L126 90z"/>
<path style="fill:#ffede2; stroke:none;" d="M219 90L219 155C221.085 150.031 220 143.35 220 138L220 106C220 100.92 220.981 94.7199 219 90z"/>
<path style="fill:#000000; stroke:none;" d="M477 90C477.357 97.8176 480.661 105.12 481 113C476.317 110.983 470.412 105.928 465.015 107.782C456.128 110.836 456.038 126.13 462.225 131.681C469.655 138.348 474.223 127.308 480.776 127.201C482.752 127.169 484.5 129.945 486 131C484.417 118.475 486.692 99.5993 477 90z"/>
<path style="fill:#ff791e; stroke:none;" d="M126 91L126 96C126.83 93.9695 126.83 93.0305 126 91z"/>
<path style="fill:#ffd6bc; stroke:none;" d="M197 92L197 95C197.696 93.4463 197.696 93.5537 197 92z"/>
<path style="fill:#ffc299; stroke:none;" d="M53 94L54 95L53 94z"/>
<path style="fill:#ffdcc3; stroke:none;" d="M11 96L11 151C12.8752 146.531 12 140.809 12 136L12 110C12 105.464 12.7688 100.215 11 96z"/>
<path style="fill:#ffc49d; stroke:none;" d="M54 96L55 97L54 96z"/>
<path style="fill:#ffb786; stroke:none;" d="M126 96L127 97L126 96z"/>
<path style="fill:#ffc49c; stroke:none;" d="M238 96L238 151C239.875 146.531 239 140.809 239 136L239 110C239 105.464 239.769 100.215 238 96z"/>
<path style="fill:#ffa366; stroke:none;" d="M55 97L56 98L55 97z"/>
<path style="fill:#ffc59f; stroke:none;" d="M196 97L197 98L196 97z"/>
<path style="fill:#ff934a; stroke:none;" d="M56 98L57 99L56 98z"/>
<path style="fill:#ffad76; stroke:none;" d="M127 98L128 99L127 98z"/>
<path style="fill:#000000; stroke:none;" d="M279 121C276.006 125.4 280.001 128.898 284.004 131.084C290.383 134.569 304.013 136.605 309.562 130.606C312.747 127.163 311.026 123.253 307.891 120.529C301.87 115.297 292.227 114.592 287.377 107.907C282.579 101.295 294.458 98.4828 299 99.652C302.09 100.447 304.919 102.113 308 103C303.903 98.3416 297.012 97.0546 291.004 98.5332C287.068 99.5019 283.296 102.484 284.786 106.985C286.857 113.24 296.733 116.441 301.999 119.378C304.851 120.968 308.938 123.056 308.534 126.961C308.01 132.029 301.76 131.98 298 131.999C289.394 132.044 280.989 130.849 279 121M316 98L316 100L318 100C317.455 98.3648 317.635 98.5451 316 98z"/>
<path style="fill:#ff8f44; stroke:none;" d="M57 99L58 100L57 99z"/>
<path style="fill:#ffd4b7; stroke:none;" d="M194 100L195 101L194 100z"/>
<path style="fill:#ffa468; stroke:none;" d="M130 101L131 102L130 101z"/>
<path style="fill:#ff8c40; stroke:none;" d="M192 101L193 102L192 101z"/>
<path style="fill:#ffac75; stroke:none;" d="M132 102L133 103L132 102z"/>
<path style="fill:#ff9d5c; stroke:none;" d="M190 102L191 103L190 102z"/>
<path style="fill:#ffd3b7; stroke:none;" d="M191 102L192 103L191 102z"/>
<path style="fill:#ffd6ba; stroke:none;" d="M88 103L89 104L88 103z"/>
<path style="fill:#ffece0; stroke:none;" d="M134 103C139.217 105.189 146.381 104 152 104L189 104C183.784 101.811 176.619 103 171 103L134 103z"/>
<path style="fill:#000000; stroke:none;" d="M353 132C346.017 129.496 338.405 133.429 332.303 126.786C326.583 120.559 328.62 105.156 338.995 105.337C343.78 105.421 346.796 110.825 343.526 114.61C340.685 117.898 336.086 118.788 332 119C339.047 123.903 351.231 114.15 345.258 106.228C341.254 100.918 333.933 103.834 330.43 108.105C322.428 117.86 329.302 131.841 341 133.671C345.152 134.32 349.01 132.912 353 132M516 132C509.434 129.645 502.274 133.27 496.228 127.606C489.912 121.689 491.39 105.662 501.999 105.377C506.322 105.26 510.016 109.926 507.377 113.812C504.65 117.828 499.461 118.793 495 119C502.129 123.655 514.513 114.589 508.856 106.394C505.042 100.869 497.2 103.932 493.803 108.188C485.882 118.116 492.824 132.424 505 133.811C508.857 134.25 512.376 133.149 516 132z"/>
<path style="fill:#ffd0b1; stroke:none;" d="M87 104L88 105L87 104z"/>
<path style="fill:#000000; stroke:none;" d="M411 107C418.298 106.015 422.013 110.998 425 117C419.559 117.495 414.343 114.93 409.015 117.228C401.655 120.403 401.504 129.404 409.04 132.437C416.076 135.268 423.085 132.948 430 131C422.965 128.254 412.761 134.566 406.449 128.347C400.951 122.93 410.417 118.265 415 118.137C421.718 117.95 425.286 123.215 430 127C429.06 119.725 426.993 112.179 420.96 107.419C417.739 104.878 413.652 103.367 411 107z"/>
<path style="fill:#ffcaa7; stroke:none;" d="M86 105L87 106L86 105z"/>
<path style="fill:#ffc7a1; stroke:none;" d="M85 106L86 107L85 106z"/>
<path style="fill:#ffd5ba; stroke:none;" d="M64 107L65 108L64 107z"/>
<path style="fill:#ffbf94; stroke:none;" d="M84 107L85 108L84 107z"/>
<path style="fill:#000000; stroke:none;" d="M359 110C359.632 118.012 361.191 125.467 364 133C366.541 126.474 355.413 107.536 370.995 109.709C373.004 109.989 375.012 110.59 377 111C372.89 104.479 364.956 108.988 359 110M381 110C381.022 118.078 382.724 125.611 386 133C387.926 126.657 376.706 107.442 391.998 109.558C394.353 109.884 396.638 110.653 399 111C393.564 105.123 387.712 108.859 381 110z"/>
<path style="fill:#ffd1b2; stroke:none;" d="M65 108L66 109L65 108z"/>
<path style="fill:#ffba8b; stroke:none;" d="M83 108L84 109L83 108z"/>
<path style="fill:#000000; stroke:none;" d="M319 108C319 116.483 318.244 126.197 322 134C324.652 127.666 321.667 114.183 319 108z"/>
<path style="fill:#ffcaa7; stroke:none;" d="M66 109L67 110L66 109z"/>
<path style="fill:#ffb481; stroke:none;" d="M82 109L83 110L82 109z"/>
<path style="fill:#ffc8a1; stroke:none;" d="M67 110L68 111L67 110z"/>
<path style="fill:#ffad76; stroke:none;" d="M81 110L82 111L81 110z"/>
<path style="fill:none; stroke:none;" d="M468.004 110.657C457.132 111.861 457.317 132.107 469 130.767C482.735 129.191 482.786 109.02 468.004 110.657z"/>
<path style="fill:#ffd5b9; stroke:none;" d="M68 111L69 112L68 111z"/>
<path style="fill:#ffc7a0; stroke:none;" d="M80 111L81 112L80 111z"/>
<path style="fill:#ffaa72; stroke:none;" d="M70 112L71 113L70 112z"/>
<path style="fill:#ffa66c; stroke:none;" d="M78 112L79 113L78 112z"/>
<path style="fill:#ffc39b; stroke:none;" d="M72 113C73.769 113.779 75.0359 113.912 77 114C75.231 113.221 73.9641 113.088 72 113z"/>
<path style="fill:#ffb685; stroke:none;" d="M101 136L102 137L101 136z"/>
<path style="fill:#ff7b24; stroke:none;" d="M102 136C103.769 136.779 105.036 136.912 107 137C105.231 136.221 103.964 136.088 102 136z"/>
<path style="fill:#ffcaa7; stroke:none;" d="M107 136L108 137L107 136z"/>
<path style="fill:#ffa96d; stroke:none;" d="M99 137L100 138L99 137z"/>
<path style="fill:#AF2E42; stroke:none;" d="M75 163C71.8752 159.91 68.6015 156.066 64 155.387C56.6977 154.31 52.4802 161.547 54.564 168C55.7001 171.518 58.5451 174.39 61.0394 177C63.8888 179.981 67.0384 183.764 71 185.257C81.8028 189.327 93.1198 171.686 99.1698 165C103.343 160.387 109.985 155.956 112.258 150C115.419 141.714 108.317 134.532 100.004 137.742C95.0584 139.652 91.6106 145.342 87.9961 149C83.5203 153.53 78.6739 157.785 75 163z"/>
<path style="fill:#ffc8a4; stroke:none;" d="M109 137L110 138L109 137z"/>
<path style="fill:#ff9f5e; stroke:none;" d="M110 138L111 139L110 138z"/>
<path style="fill:#ffa569; stroke:none;" d="M111 139L112 140L111 139z"/>
<path style="fill:#ffc7a1; stroke:none;" d="M112 140L113 141L112 140z"/>
<path style="fill:#ffc8a4; stroke:none;" d="M113 142L114 143L113 142z"/>
<path style="fill:#ff8c3f; stroke:none;" d="M93 143L94 144L93 143z"/>
<path style="fill:#ff812c; stroke:none;" d="M113 143L113 148C113.83 145.97 113.83 145.03 113 143z"/>
<path style="fill:#ff9247; stroke:none;" d="M92 144L93 145L92 144z"/>
<path style="fill:#ff944d; stroke:none;" d="M91 145L92 146L91 145z"/>
<path style="fill:#ff9a57; stroke:none;" d="M90 146L91 147L90 146z"/>
<path style="fill:#ffa05f; stroke:none;" d="M89 147L90 148L89 147z"/>
<path style="fill:#ffa56a; stroke:none;" d="M88 148L89 149L88 148z"/>
<path style="fill:#ffbd90; stroke:none;" d="M113 148L114 149L113 148z"/>
<path style="fill:#ffaa71; stroke:none;" d="M87 149L88 150L87 149z"/>
<path style="fill:#ffb07a; stroke:none;" d="M86 150L87 151L86 150z"/>
<path style="fill:#ffab73; stroke:none;" d="M112 150L113 151L112 150z"/>
<path style="fill:#ffe7d7; stroke:none;" d="M11 151L11 160C12.2561 157.006 12.2561 153.994 11 151z"/>
<path style="fill:#ffb482; stroke:none;" d="M85 151L86 152L85 151z"/>
<path style="fill:#ffd7bc; stroke:none;" d="M238 151L238 164C239.591 160.209 239.591 154.791 238 151z"/>
<path style="fill:#ffbd90; stroke:none;" d="M84 152L85 153L84 152z"/>
<path style="fill:#ffc49e; stroke:none;" d="M83 153L84 154L83 153z"/>
<path style="fill:#ffe9db; stroke:none;" d="M61 154C62.506 154.683 63.3148 154.826 65 155C63.494 154.317 62.6852 154.174 61 154z"/>
<path style="fill:#ffcaa6; stroke:none;" d="M82 154L83 155L82 154z"/>
<path style="fill:#ffd6bc; stroke:none;" d="M109 154L110 155L109 154z"/>
<path style="fill:#ffa76d; stroke:none;" d="M59 155L60 156L59 155z"/>
<path style="fill:#ff9047; stroke:none;" d="M65 155L66 156L65 155z"/>
<path style="fill:#ffc9a5; stroke:none;" d="M66 155L67 156L66 155z"/>
<path style="fill:#ffcdac; stroke:none;" d="M81 155L82 156L81 155z"/>
<path style="fill:#ffd4b7; stroke:none;" d="M108 155L109 156L108 155z"/>
<path style="fill:#ffdac1; stroke:none;" d="M219 155L219 164C220.256 161.006 220.256 157.994 219 155z"/>
<path style="fill:#ffa76b; stroke:none;" d="M57 156L58 157L57 156z"/>
<path style="fill:#ffd2b4; stroke:none;" d="M80 156L81 157L80 156z"/>
<path style="fill:#ffcead; stroke:none;" d="M107 156L108 157L107 156z"/>
<path style="fill:#ffece1; stroke:none;" d="M134 156C139.216 158.189 146.381 157 152 157L189 157C183.784 154.811 176.619 156 171 156L134 156z"/>
<path style="fill:#ffd7bc; stroke:none;" d="M69 157L70 158L69 157z"/>
<path style="fill:#ffc196; stroke:none;" d="M106 157L107 158L106 157z"/>
<path style="fill:#ffb380; stroke:none;" d="M132 157L133 158L132 157z"/>
<path style="fill:#AF2E42; stroke:none;" d="M133.015 157.653C124.936 160.268 124.936 172.732 133.015 175.347C137.578 176.824 143.263 176 148 176L176 176C180.943 176 187.418 177.038 191.956 174.682C200.149 170.429 197.226 159.294 188.999 157.394C177.717 154.788 163.574 157 152 157C146.101 157 138.682 155.818 133.015 157.653z"/>
<path style="fill:#ffa568; stroke:none;" d="M190 157L191 158L190 157z"/>
<path style="fill:#ff8d3f; stroke:none;" d="M55 158L56 159L55 158z"/>
<path style="fill:#ffb989; stroke:none;" d="M105 158L106 159L105 158z"/>
<path style="fill:#ffaa72; stroke:none;" d="M130 158L131 159L130 158z"/>
<path style="fill:#ff9247; stroke:none;" d="M192 158L193 159L192 158z"/>
<path style="fill:#ffb787; stroke:none;" d="M54 159L55 160L54 159z"/>
<path style="fill:#ffb27f; stroke:none;" d="M104 159L105 160L104 159z"/>
<path style="fill:#ffaf7a; stroke:none;" d="M103 160L104 161L103 160z"/>
<path style="fill:#ffc8a3; stroke:none;" d="M53 161L54 162L53 161z"/>
<path style="fill:#ffac73; stroke:none;" d="M102 161L103 162L102 161z"/>
<path style="fill:#ffb07b; stroke:none;" d="M127 161L128 162L127 161z"/>
<path style="fill:#ff8c3f; stroke:none;" d="M53 162L53 167C53.8299 164.97 53.8299 164.03 53 162z"/>
<path style="fill:#ffa76b; stroke:none;" d="M101 162L102 163L101 162z"/>
<path style="fill:#ffc8a4; stroke:none;" d="M196 162L197 163L196 162z"/>
<path style="fill:#ff9f5e; stroke:none;" d="M100 163L101 164L100 163z"/>
<path style="fill:#ffb88a; stroke:none;" d="M126 163L127 164L126 163z"/>
<path style="fill:#ff944d; stroke:none;" d="M99 164L100 165L99 164z"/>
<path style="fill:#ff7a22; stroke:none;" d="M126 164L126 169C126.83 166.97 126.83 166.03 126 164z"/>
<path style="fill:#ffdcc4; stroke:none;" d="M197 164L197 168C197.71 166.241 197.71 165.759 197 164z"/>
<path style="fill:#ff9247; stroke:none;" d="M98 165L99 166L98 165z"/>
<path style="fill:#ffe3d0; stroke:none;" d="M31 166L31 172C31.9511 169.715 31.9511 168.285 31 166z"/>
<path style="fill:#ff8f41; stroke:none;" d="M97 166L98 167L97 166z"/>
<path style="fill:#ffc8a5; stroke:none;" d="M53 167L54 168L53 167z"/>
<path style="fill:#ffd8bf; stroke:none;" d="M12 169L12 175C12.9511 172.715 12.9511 171.285 12 169z"/>
<path style="fill:#ffbf95; stroke:none;" d="M54 169L55 170L54 169z"/>
<path style="fill:#ffb583; stroke:none;" d="M126 169L127 170L126 169z"/>
<path style="fill:#ff9953; stroke:none;" d="M55 170L56 171L55 170z"/>
<path style="fill:#ffc39a; stroke:none;" d="M196 170L197 171L196 170z"/>
<path style="fill:#ff8c3f; stroke:none;" d="M56 171L57 172L56 171z"/>
<path style="fill:#ffa96f; stroke:none;" d="M127 171L128 172L127 171z"/>
<path style="fill:#ffcfaf; stroke:none;" d="M194 173L195 174L194 173z"/>
<path style="fill:#ffdbc3; stroke:none;" d="M218 173L218 177C218.71 175.241 218.71 174.759 218 173z"/>
<path style="fill:#000000; stroke:none;" d="M298 203C292.343 200.626 284.832 203.995 280.757 197.891C277.987 193.742 280.388 188.409 283.228 185.004C289.474 177.513 297.623 174.768 307 177C299.109 168.151 281.87 180.043 278.854 189C276.666 195.499 279.68 203.104 287.001 203.89C290.686 204.287 294.365 203.459 298 203z"/>
<path style="fill:#ffd8bf; stroke:none;" d="M90 174L91 175L90 174z"/>
<path style="fill:#ff9f5e; stroke:none;" d="M130 174L131 175L130 174z"/>
<path style="fill:#ffd3b4; stroke:none;" d="M89 175L90 176L89 175z"/>
<path style="fill:#ffa66a; stroke:none;" d="M132 175L133 176L132 175z"/>
<path style="fill:#ff9752; stroke:none;" d="M190 175L191 176L190 175z"/>
<path style="fill:#ffcfae; stroke:none;" d="M191 175L192 176L191 175z"/>
<path style="fill:#000000; stroke:none;" d="M352 178C359.677 176.571 364.679 181.706 366 189C360.716 187.792 355.341 185.878 350.043 188.228C344.171 190.834 342.353 198.122 348.109 201.991C355.099 206.689 363.652 203.68 371 202C363.891 199.045 353.451 205.78 347.492 198.606C343.164 193.395 351.826 189.343 356 189.11C362.487 188.747 366.375 193.256 370 198C372.472 191.664 367.805 182.504 362.907 178.394C359.464 175.506 354.87 173.955 352 178M405 178C412.676 176.932 418.135 181.23 419 189C414.066 187.872 408.991 185.964 404.004 188.009C397.957 190.49 395.318 197.507 401.225 201.852C407.788 206.681 416.965 203.978 424 202C417.005 199.092 407.689 205.329 401.323 199.347C396.294 194.623 403.498 189.755 408 189.193C414.961 188.323 419.693 192.33 423 198C426.617 189.299 414.26 168.661 405 178z"/>
<path style="fill:#ffccaa; stroke:none;" d="M88 176L89 177L88 176z"/>
<path style="fill:#ffebde; stroke:none;" d="M134 176C139.216 178.189 146.381 177 152 177L189 177C183.784 174.811 176.619 176 171 176L134 176z"/>
<path style="fill:#ffc49d; stroke:none;" d="M87 177L88 178L87 177z"/>
<path style="fill:#000000; stroke:none;" d="M313 177C311.751 184.57 313.15 201.966 323.997 201.758C328.481 201.671 331.863 197.401 336 196C336.747 199.21 337.32 201.988 340 204C339.294 199.9 337.626 196.089 336.808 192C336.004 187.982 336.16 183.922 335 180C332.393 186.213 334.933 192.525 328.815 197.566C324.698 200.957 320.48 198.983 317.703 194.981C314.012 189.66 313.875 183.083 315 177L313 177z"/>
<path style="fill:#ffd8bf; stroke:none;" d="M62 178L63 179L62 178z"/>
<path style="fill:#ffc299; stroke:none;" d="M86 178L87 179L86 178z"/>
<path style="fill:#000000; stroke:none;" d="M376 181C376.001 187.984 375.811 199.443 382 204C380.63 197.378 372.751 179.81 386 180.243C388.676 180.331 391.403 181.406 394 182C388.618 175.902 382.703 179.171 376 181z"/>
<path style="fill:#ffe5d3; stroke:none;" d="M32.3333 179.667C32.2778 179.722 32.2222 180.778 32.6667 180.333C32.7222 180.278 32.7778 179.222 32.3333 179.667z"/>
<path style="fill:#ffd0b1; stroke:none;" d="M63 179L64 180L63 179z"/>
<path style="fill:#ffbc8f; stroke:none;" d="M85 179L86 180L85 179z"/>
<path style="fill:#ffcba9; stroke:none;" d="M64 180L65 181L64 180z"/>
<path style="fill:#ffb482; stroke:none;" d="M84 180L85 181L84 180z"/>
<path style="fill:#ffd3b4; stroke:none;" d="M13 181L13 184C13.6961 182.446 13.6961 182.554 13 181z"/>
<path style="fill:#ffc59d; stroke:none;" d="M65 181L66 182L65 181z"/>
<path style="fill:#ffad77; stroke:none;" d="M83 181L84 182L83 181z"/>
<path style="fill:#ffe8d8; stroke:none;" d="M217.333 181.667C217.278 181.722 217.222 182.778 217.667 182.333C217.722 182.278 217.778 181.222 217.333 181.667z"/>
<path style="fill:#ffbf95; stroke:none;" d="M66 182L67 183L66 182z"/>
<path style="fill:#ffa66b; stroke:none;" d="M82 182L83 183L82 182z"/>
<path style="fill:#ffbd91; stroke:none;" d="M67 183L68 184L67 183z"/>
<path style="fill:#ffa56a; stroke:none;" d="M81 183L82 184L81 183z"/>
<path style="fill:#ffcdac; stroke:none;" d="M68 184L69 185L68 184z"/>
<path style="fill:#ffbd90; stroke:none;" d="M80 184L81 185L80 184z"/>
<path style="fill:#ffd7bb; stroke:none;" d="M236.333 184.667C236.278 184.722 236.222 185.778 236.667 185.333C236.722 185.278 236.778 184.222 236.333 184.667z"/>
<path style="fill:#ffe1cf; stroke:none;" d="M33.3333 185.667C33.2777 185.722 33.2222 186.778 33.6667 186.333C33.7222 186.278 33.7778 185.222 33.3333 185.667z"/>
<path style="fill:#ffa66c; stroke:none;" d="M70 185L71 186L70 185z"/>
<path style="fill:#ff9954; stroke:none;" d="M78 185L79 186L78 185z"/>
<path style="fill:#ffbe91; stroke:none;" d="M72 186C73.769 186.779 75.0359 186.912 77 187C75.231 186.221 73.9641 186.088 72 186z"/>
<path style="fill:#000000; stroke:none;" d="M291 188C294.887 190.944 300.284 190 305 190C304.937 195.308 303.996 198.592 299 201C301.052 201.874 302.747 201.953 305 202C305.185 205.353 305.233 208.071 309 208C306.1 202.785 309.493 193.936 305.972 189.757C303.824 187.207 294.403 188.43 291 188z"/>
<path style="fill:#ffdac0; stroke:none;" d="M34.3333 190.667C34.2778 190.722 34.2222 191.778 34.6667 191.333C34.7222 191.278 34.7778 190.222 34.3333 190.667z"/>
<path style="fill:#ffddc4; stroke:none;" d="M235.333 190.667C235.278 190.722 235.222 191.778 235.667 191.333C235.722 191.278 235.778 190.222 235.333 190.667z"/>
<path style="fill:#ffddc8; stroke:none;" d="M15.3333 193.667C15.2778 193.722 15.2222 194.778 15.6667 194.333C15.7222 194.278 15.7778 193.222 15.3333 193.667z"/>
<path style="fill:#ffe6d5; stroke:none;" d="M16.3333 197.667C16.2778 197.722 16.2222 198.778 16.6667 198.333C16.7222 198.278 16.7778 197.222 16.3333 197.667z"/>
<path style="fill:#ffd4b6; stroke:none;" d="M191.667 215.333C191.222 215.778 192.278 215.722 192.333 215.667C192.778 215.222 191.722 215.278 191.667 215.333z"/>
<path style="fill:#ffdcc4; stroke:none;" d="M61.6667 216.333C61.2222 216.778 62.2778 216.722 62.3333 216.667C62.7778 216.222 61.7222 216.278 61.6667 216.333z"/>
<path style="fill:#ffe0cc; stroke:none;" d="M186.667 216.333C186.222 216.778 187.278 216.722 187.333 216.667C187.778 216.222 186.722 216.278 186.667 216.333z"/>
<path style="fill:#ffd6ba; stroke:none;" d="M66.6667 217.333C66.2222 217.778 67.2778 217.722 67.3333 217.667C67.7778 217.222 66.7222 217.278 66.6667 217.333z"/>
<path style="fill:#ffe6d5; stroke:none;" d="M75 218C76.769 218.779 78.0359 218.912 80 219C78.231 218.221 76.9641 218.088 75 218z"/>
<path style="fill:#ffdec8; stroke:none;" d="M169 218C171.613 219.098 174.164 218.993 177 219C174.387 217.902 171.835 218.007 169 218z"/>
<path style="fill:#ffcdab; stroke:none;" d="M86 219C88.6127 220.098 91.1645 219.993 94 220C91.3873 218.902 88.8355 219.007 86 219z"/>
<path style="fill:#ffe1cd; stroke:none;" d="M94 219C99.7073 221.395 107.846 220 114 220L156 220C150.293 217.605 142.154 219 136 219L94 219z"/>
<path style="fill:#ffe8d8; stroke:none;" d="M198.667 233.333C198.222 233.778 199.278 233.722 199.333 233.667C199.778 233.222 198.722 233.278 198.667 233.333z"/>
<path style="fill:#ffd4b6; stroke:none;" d="M54.6667 234.333C54.2222 234.778 55.2778 234.722 55.3333 234.667C55.7778 234.222 54.7222 234.278 54.6667 234.333z"/>
<path style="fill:#ffdcc4; stroke:none;" d="M58.6667 235.333C58.2222 235.778 59.2778 235.722 59.3333 235.667C59.7778 235.222 58.7222 235.278 58.6667 235.333z"/>
<path style="fill:#ffe5d3; stroke:none;" d="M190.667 235.333C190.222 235.778 191.278 235.722 191.333 235.667C191.778 235.222 190.722 235.278 190.667 235.333z"/>
<path style="fill:#ffe4d1; stroke:none;" d="M63.6667 236.333C63.2222 236.778 64.2778 236.722 64.3333 236.667C64.7778 236.222 63.7222 236.278 63.6667 236.333z"/>
<path style="fill:#fff1e6; stroke:none;" d="M175 237C176.769 237.779 178.036 237.912 180 238C178.231 237.221 176.964 237.088 175 237z"/>
<path style="fill:#ffdbc2; stroke:none;" d="M83 238C86.9587 239.661 91.7366 239 96 239C92.0413 237.339 87.2634 238 83 238z"/>
<path style="fill:#ffcfae; stroke:none;" d="M96 238C101.462 240.292 109.113 239 115 239L155 239C149.538 236.708 141.887 238 136 238L96 238z"/>
<path style="fill:#ffe5d3; stroke:none;" d="M155 238C157.89 239.213 160.874 238.998 164 239C161.11 237.787 158.126 238.002 155 238z"/>
</svg>
