<?xml version="1.0" standalone="yes"?>
<svg xmlns="http://www.w3.org/2000/svg" width="500" height="500">
<path style="fill:none; stroke:none;" d="M0 0L0 500L500 500L500 0L0 0z"/>
<path style="fill:#007f42; stroke:none;" d="M222 162C204.7 184.507 189.139 208.659 172.975 232C165.557 242.712 153.976 254.544 150 267L202 267C208.521 267 218.755 268.94 224.816 266.397C227.872 265.114 229.603 261.569 231.424 259C235.191 253.687 239 248.389 242.656 243C244.384 240.453 247.162 237.291 246.879 234C246.549 230.163 242.831 226.288 241 223L239 223C235.217 229.641 230.376 235.717 226.025 242C223.732 245.31 221.456 249.939 217.826 251.972C214.314 253.94 208.881 253 205 253L176 253C184.056 239.946 193.482 227.569 202.28 215C209.049 205.33 215.342 194.985 223 186C225.67 193.292 230.812 199.484 234.947 206C242.808 218.389 251.065 230.538 258.808 243C262.175 248.42 265.848 253.64 269.308 259C270.796 261.306 272.149 264.435 274.529 265.972C278.306 268.412 285.659 267 290 267C287.357 255.753 276.91 244.654 270.692 235C259.945 218.314 249.342 201.515 238.333 185C233.314 177.471 229.015 167.798 222 162z"/>
<path style="fill:#ae6500; stroke:none;" d="M282 162C275.312 170.701 269.273 179.977 263.025 189C260.751 192.284 256.131 196.839 255.932 201C255.735 205.11 260.089 209.567 262 213L264 213C269.232 203.612 276.028 194.175 283 186C285.796 193.636 291.236 200.23 295.656 207C303.465 218.961 311.293 230.939 318.947 243C322.353 248.367 325.861 253.659 329.308 259C330.796 261.306 332.149 264.435 334.529 265.972C338.306 268.412 345.659 267 350 267C347.335 258.581 341.07 251.419 336.424 244C326.099 227.509 315.228 211.357 304.692 195C297.958 184.545 291.617 169.948 282 162z"/>
<path style="fill:#dfffff; stroke:none;" d="M205 287L205 309L210 309L210 297C213.987 302.599 215.283 308.744 223 309L223 287L218 287L218 300C214.502 294.069 212.69 287.256 205 287M267 288C258.655 286.098 264.006 295.434 267 288M270 287C269.825 289.698 268.519 292.368 268.519 295C268.519 297.04 269.619 299.009 269.872 301.039C270.151 303.281 269.595 306.367 271.602 307.972C273.276 309.311 276.013 308.976 278 309L278 305L275 305L275 297L278 297L278 293L275 293L275 287L270 287M229.214 294.028C220.225 299.36 228.66 313.685 237.891 308.681C247.467 303.491 239.086 288.171 229.214 294.028M260 303C257.552 303.167 254.505 304.47 252.123 304.107C249.052 303.639 248.202 299.436 251.294 298.248C253.691 297.327 257.461 298.841 260 299C257.245 291.34 244.89 290.614 244.124 300.004C243.239 310.856 256.609 312.678 260 303M261 293L261 309L266 309L266 293L261 293M283.189 293.742C273.87 297.869 281.066 313.273 290.895 308.987C301.253 304.471 293.6 289.131 283.189 293.742z"/>
<path style="fill:none; stroke:none;" d="M232.303 298.086C228.715 300.232 231.941 306.261 235.4 303.914C238.395 301.882 235.953 295.904 232.303 298.086M285.6 298.086C282.267 300.348 285.711 306.731 289.258 303.953C292.252 301.607 288.974 295.797 285.6 298.086z"/>
</svg>
