<?xml version="1.0" standalone="yes"?>
<svg xmlns="http://www.w3.org/2000/svg" width="600" height="250">
<path style="fill:none; stroke:none;" d="M0 0L0 250L600 250L600 0L0 0z"/>
<path style="fill:#ffddc7; stroke:none;" d="M115.667 20.3333C115.222 20.7778 116.278 20.7222 116.333 20.6667C116.778 20.2222 115.722 20.2778 115.667 20.3333z"/>
<path style="fill:#ffc196; stroke:none;" d="M117 20C118.769 20.7789 120.036 20.9124 122 21C120.231 20.2211 118.964 20.0876 117 20z"/>
<path style="fill:#ffdec8; stroke:none;" d="M122.667 20.3333C122.222 20.7778 123.278 20.7222 123.333 20.6667C123.778 20.2222 122.722 20.2778 122.667 20.3333z"/>
<path style="fill:#ffccaa; stroke:none;" d="M112 21L113 22L112 21z"/>
<path style="fill:#ff8331; stroke:none;" d="M113.667 21.3333C113.222 21.7778 114.278 21.7222 114.333 21.6667C114.778 21.2222 113.722 21.2778 113.667 21.3333z"/>
<path style="fill:#AF2E42; stroke:none;" d="M115 21.4676C94.0827 25.4138 87.1737 52.5104 103.174 66.3194C109.436 71.7243 117.983 73.0801 126 71.6713C142.085 68.8446 149.749 49.0878 143.08 35C138.127 24.5355 126.081 19.3771 115 21.4676z"/>
<path style="fill:#ffa468; stroke:none;" d="M126 21L127 22L126 21z"/>
<path style="fill:#ff9e5c; stroke:none;" d="M110 22L111 23L110 22z"/>
<path style="fill:#ffa162; stroke:none;" d="M129 22L130 23L129 22z"/>
<path style="fill:#ffd6bc; stroke:none;" d="M107 23L108 24L107 23z"/>
<path style="fill:#ff8e43; stroke:none;" d="M108 23L109 24L108 23z"/>
<path style="fill:#ff9047; stroke:none;" d="M131 23L132 24L131 23z"/>
<path style="fill:#ff9e5c; stroke:none;" d="M106 24L107 25L106 24z"/>
<path style="fill:#ffa163; stroke:none;" d="M133 24L134 25L133 24z"/>
<path style="fill:#ffcdaa; stroke:none;" d="M104 25L105 26L104 25z"/>
<path style="fill:#ffd0b1; stroke:none;" d="M135 25L136 26L135 25z"/>
<path style="fill:#ffaf7a; stroke:none;" d="M103 26L104 27L103 26z"/>
<path style="fill:#ffb381; stroke:none;" d="M136 26L137 27L136 26z"/>
<path style="fill:#ffa162; stroke:none;" d="M102 27L103 28L102 27z"/>
<path style="fill:#ffa469; stroke:none;" d="M137 27L138 28L137 27z"/>
<path style="fill:#ff9955; stroke:none;" d="M101 28L102 29L101 28z"/>
<path style="fill:#ffa163; stroke:none;" d="M138 28L139 29L138 28z"/>
<path style="fill:#000000; stroke:none;" d="M256 28L256 221L258 221L258 28L256 28z"/>
<path style="fill:#ffa468; stroke:none;" d="M100 29L101 30L100 29z"/>
<path style="fill:#ffa76e; stroke:none;" d="M139 29L140 30L139 29z"/>
<path style="fill:#ffb98b; stroke:none;" d="M99 30L100 31L99 30z"/>
<path style="fill:#ffc197; stroke:none;" d="M140 30L141 31L140 30z"/>
<path style="fill:#ffd7be; stroke:none;" d="M98 31L99 32L98 31z"/>
<path style="fill:#ffba8e; stroke:none;" d="M97 33L98 34L97 33z"/>
<path style="fill:#ffc096; stroke:none;" d="M142 33L143 34L142 33z"/>
<path style="fill:#ffb17d; stroke:none;" d="M96 35L97 36L96 35z"/>
<path style="fill:#ffb989; stroke:none;" d="M143 35L144 36L143 35z"/>
<path style="fill:#ffc8a2; stroke:none;" d="M95 37L96 38L95 37z"/>
<path style="fill:#ffcead; stroke:none;" d="M144 37L145 38L144 37z"/>
<path style="fill:#ff9854; stroke:none;" d="M144 38L145 39L144 38z"/>
<path style="fill:#ffb27e; stroke:none;" d="M94.3333 40.6667C94.2778 40.7222 94.2222 41.7778 94.6667 41.3333C94.7223 41.2777 94.7777 40.2223 94.3333 40.6667z"/>
<path style="fill:#ffb98b; stroke:none;" d="M145.333 40.6667C145.278 40.7222 145.222 41.7778 145.667 41.3333C145.722 41.2778 145.778 40.2223 145.333 40.6667z"/>
<path style="fill:#ff781d; stroke:none;" d="M145 42L145 50C146.161 47.2301 146.161 44.7699 145 42z"/>
<path style="fill:#ff9047; stroke:none;" d="M94 49L94 52C94.6961 50.4463 94.6961 50.5537 94 49z"/>
<path style="fill:#ffb27e; stroke:none;" d="M145.333 50.6667C145.278 50.7222 145.222 51.7778 145.667 51.3333C145.722 51.2777 145.778 50.2223 145.333 50.6667z"/>
<path style="fill:#ffe9dc; stroke:none;" d="M94.3333 52.6667C94.2778 52.7222 94.2222 53.7778 94.6667 53.3333C94.7223 53.2777 94.7777 52.2223 94.3333 52.6667z"/>
<path style="fill:#ffb98b; stroke:none;" d="M95 55L96 56L95 55z"/>
<path style="fill:#ffc197; stroke:none;" d="M144 55L145 56L144 55z"/>
<path style="fill:#ffa060; stroke:none;" d="M96 57L97 58L96 57z"/>
<path style="fill:#ffa76c; stroke:none;" d="M143 57L144 58L143 57z"/>
<path style="fill:#ffa76b; stroke:none;" d="M97 59L98 60L97 59z"/>
<path style="fill:#ffac75; stroke:none;" d="M142 59L143 60L142 59z"/>
<path style="fill:#ffc9a3; stroke:none;" d="M98 61L99 62L98 61z"/>
<path style="fill:#ffcead; stroke:none;" d="M141 61L142 62L141 61z"/>
<path style="fill:#ffa569; stroke:none;" d="M99 62L100 63L99 62z"/>
<path style="fill:#ffac75; stroke:none;" d="M140 62L141 63L140 62z"/>
<path style="fill:#ff8e45; stroke:none;" d="M100 63L101 64L100 63z"/>
<path style="fill:#ff9249; stroke:none;" d="M139 63L140 64L139 63z"/>
<path style="fill:#000000; stroke:none;" d="M391 64L391 78L384 78C386.433 79.8744 389.02 80.2554 392 81C390.064 87.5511 391.393 94.4783 393 101C395.5 95.0411 394 86.4361 394 80L401 80L401 78L394 78C393.997 72.998 394.294 68.0242 391 64M373 65C373.899 67.1236 373.876 67.1007 376 68C374.897 66.5434 374.457 66.1034 373 65z"/>
<path style="fill:#ff9147; stroke:none;" d="M103 66L104 67L103 66z"/>
<path style="fill:#ff944d; stroke:none;" d="M136 66L137 67L136 66z"/>
<path style="fill:#ffac74; stroke:none;" d="M104 67L105 68L104 67z"/>
<path style="fill:#ffb07b; stroke:none;" d="M135 67L136 68L135 67z"/>
<path style="fill:#ffd0b1; stroke:none;" d="M105 68L106 69L105 68z"/>
<path style="fill:#ffd3b7; stroke:none;" d="M134 68L135 69L134 68z"/>
<path style="fill:#ffb583; stroke:none;" d="M107 69L108 70L107 69z"/>
<path style="fill:#ffb889; stroke:none;" d="M132 69L133 70L132 69z"/>
<path style="fill:#ffb887; stroke:none;" d="M109 70L110 71L109 70z"/>
<path style="fill:#ffba8c; stroke:none;" d="M130 70L131 71L130 70z"/>
<path style="fill:#000000; stroke:none;" d="M278 70C279.885 80.154 278 90.6948 278 101L280 101C280 95.6001 279.742 90.282 281 85C286.506 90.0671 289.663 99.0253 298 100.142C314.715 102.381 311.179 79.0301 303 72C303.573 77.5977 307.081 81.6756 308.323 87C310.355 95.7151 300.755 100.056 294.004 95.9907C288.165 92.4747 285.176 86.1035 282.811 80C281.474 76.548 280.925 72.3542 278 70z"/>
<path style="fill:#ffd4b8; stroke:none;" d="M111 71L112 72L111 71z"/>
<path style="fill:#ffa76b; stroke:none;" d="M112 71L113 72L112 71z"/>
<path style="fill:#ffa86f; stroke:none;" d="M127 71L128 72L127 71z"/>
<path style="fill:#ffd1b3; stroke:none;" d="M114.667 72.3333C114.222 72.7778 115.278 72.7222 115.333 72.6667C115.778 72.2222 114.722 72.2778 114.667 72.3333z"/>
<path style="fill:#ff9b58; stroke:none;" d="M116 72C118.332 72.9845 120.457 72.9813 123 73C120.668 72.0155 118.543 72.0187 116 72z"/>
<path style="fill:#ffd3b5; stroke:none;" d="M123.667 72.3333C123.222 72.7778 124.278 72.7222 124.333 72.6667C124.778 72.2222 123.722 72.2778 123.667 72.3333z"/>
<path style="fill:#ffaf7b; stroke:none;" d="M196 75C197.506 75.683 198.315 75.8259 200 76C198.494 75.317 197.685 75.1741 196 75z"/>
<path style="fill:#000000; stroke:none;" d="M369 100C361.927 97.032 353.793 101.117 348.862 92.9815C343.221 83.6757 356.279 71.5591 364 81C365.768 72.4863 352.857 75.4498 349.394 79.2137C343.719 85.3804 344.12 95.469 352.015 99.5432C356.941 102.085 363.822 101.233 369 100M376 75C376 83.5573 375.97 92.9093 379 101C381.458 95.1413 379.787 79.9975 376 75M482 100C475.604 97.3161 467.499 100.77 462.742 93.892C458.628 87.9433 462.79 78.4145 469.831 77.1319C472.9 76.5729 475.484 78.5551 478 80C474.866 74.0286 468.118 74.0508 463.34 78.5332C457.384 84.1211 457.397 95.2543 465.043 99.3117C467.211 100.462 469.579 100.839 472 100.96C475.461 101.133 478.692 100.978 482 100M518 79C518 86.2803 517.268 95.7026 523 101C522.083 96.2714 520.214 90.8455 521.01 86C522.236 78.5356 530.446 75.0491 535.581 81.1088C540.135 86.4823 539.999 94.385 540 101C544.475 94.4497 540.999 77.1615 531.985 75.5386C527.334 74.7011 522.724 78.7638 518 79z"/>
<path style="fill:#ff9b59; stroke:none;" d="M194 76L195 77L194 76z"/>
<path style="fill:#AF2E42; stroke:none;" d="M191 124L191 210C191 216.958 187.409 237.166 198.996 235.833C203.4 235.326 204.808 231.986 204.981 228C205.355 219.367 205 210.641 205 202L205 106C205 99.004 205.127 91.9947 204.995 85C204.923 81.1527 204.255 77.5328 199.981 76.4491C195.727 75.3705 192.025 77.7799 191.228 82.0154C189.952 88.8016 193.202 97.6954 189.972 103.985C188.327 107.19 185.022 109.362 182 111.123C172.592 116.605 161.669 118.589 151 116.539C136.811 113.813 126.528 104.529 112.001 112.88C109.56 114.283 107.352 115.944 105.519 118.093C103.539 120.414 101.891 123.146 100.814 126C96.1262 138.429 97.2312 154.781 106.326 164.91C110.229 169.257 115.557 171.658 120 175.329C128.234 182.133 135.211 190.802 138.644 201C141.907 210.692 139.963 221.522 143.344 230.981C144.869 235.247 149.708 237.416 153.852 234.972C156.764 233.255 156.938 230.03 156.995 227C157.121 220.337 156.6 213.583 155.561 207C153.348 192.975 147.002 179.217 136.91 169.09C127.361 159.508 111.587 155.185 113.733 139C113.998 137 114.157 134.897 114.893 133C116.729 128.264 121.661 123.866 127 124.623C133.193 125.502 138.825 129.628 145 130.985C160.735 134.442 176.953 131.36 191 124z"/>
<path style="fill:#ff9247; stroke:none;" d="M201 76L202 77L201 76z"/>
<path style="fill:#ffd7be; stroke:none;" d="M192 77L193 78L192 77z"/>
<path style="fill:#ffc299; stroke:none;" d="M203 77L204 78L203 77z"/>
<path style="fill:#000000; stroke:none;" d="M327 77.5332C322.407 78.5308 317.488 81.4369 315.743 86.0039C312.056 95.6566 322.407 102.566 331 100.606C345.81 97.2264 341.668 74.3472 327 77.5332M417 77.5332C412.725 78.4617 408.232 81.0195 406.179 85.0154C401.137 94.8305 411.985 102.663 421 100.606C435.81 97.2264 431.668 74.3472 417 77.5332M499 77.5224C494.275 78.4892 489.524 81.3046 487.743 86.0008C484.081 95.6567 494.388 102.571 503 100.606C517.802 97.2283 513.716 74.5114 499 77.5224z"/>
<path style="fill:#ffd5b8; stroke:none;" d="M204 78L205 79L204 78z"/>
<path style="fill:#ff9650; stroke:none;" d="M191 79L192 80L191 79z"/>
<path style="fill:none; stroke:none;" d="M326 79.5478C312.301 82.4083 315.369 101.483 329 98.6026C343.035 95.6369 339.887 76.6482 326 79.5478M416 79.5193C402.639 81.626 404.348 100.48 418 98.7708C432.757 96.9235 430.685 77.2039 416 79.5193M498 79.5694C484.184 82.0896 487.099 101.546 501 98.6026C514.815 95.678 511.87 77.0396 498 79.5694z"/>
<path style="fill:#ffccab; stroke:none;" d="M205 80L206 81L205 80z"/>
<path style="fill:#ff9651; stroke:none;" d="M190 81L190 105C192.349 99.403 192.349 86.5969 190 81z"/>
<path style="fill:#ff832f; stroke:none;" d="M205 81L205 231C206.552 227.301 206 222.983 206 219L206 197L206 119L206 94C206 89.7397 206.661 84.9586 205 81z"/>
<path style="fill:#ffebdf; stroke:none;" d="M77 96C79.6127 97.0977 82.1645 96.9928 85 97C82.3873 95.9023 79.8355 96.0072 77 96z"/>
<path style="fill:#ffbc8f; stroke:none;" d="M85 96.4244C69.9083 98.4059 51.0683 96.3315 45.9282 115C40.9465 133.094 53.7798 143.567 66 154.285C70.4574 158.194 76.1407 165.094 82.9414 162.396C88.2347 160.296 87.6551 153.116 84.5664 149.424C78.9861 142.754 71.3028 137.787 65.1049 131.715C62.3305 128.996 59.4496 125.111 60.7855 121C65.8623 105.376 87.4524 116.134 97.8519 109.972C102.159 107.42 101.893 99.9047 97.7716 97.3179C94.2709 95.1205 88.8733 95.9158 85 96.4244z"/>
<path style="fill:#ffdec7; stroke:none;" d="M65 97C66.769 97.7789 68.0359 97.9124 70 98C68.2309 97.2211 66.9641 97.0876 65 97z"/>
<path style="fill:#ffd4b6; stroke:none;" d="M62.6667 98.3333C62.2223 98.7778 63.2778 98.7222 63.3333 98.6667C63.7778 98.2222 62.7222 98.2778 62.6667 98.3333z"/>
<path style="fill:#ffd3b4; stroke:none;" d="M101 101L101 106C101.83 103.97 101.83 103.03 101 101z"/>
<path style="fill:#ffc199; stroke:none;" d="M187 107L188 108L187 107z"/>
<path style="fill:#ffe4d1; stroke:none;" d="M122 108C124.613 109.098 127.164 108.993 130 109C127.387 107.902 124.836 108.007 122 108z"/>
<path style="fill:#ffa76b; stroke:none;" d="M186 108L187 109L186 108z"/>
<path style="fill:#ffa162; stroke:none;" d="M119.667 109.333C119.222 109.778 120.278 109.722 120.333 109.667C120.778 109.222 119.722 109.278 119.667 109.333z"/>
<path style="fill:#ffb584; stroke:none;" d="M130.667 109.333C130.222 109.778 131.278 109.722 131.333 109.667C131.778 109.222 130.722 109.278 130.667 109.333z"/>
<path style="fill:#ffd4b7; stroke:none;" d="M184 109L185 110L184 109z"/>
<path style="fill:#ffb07b; stroke:none;" d="M116 110L117 111L116 110z"/>
<path style="fill:#ffa163; stroke:none;" d="M134 110L135 111L134 110z"/>
<path style="fill:#ffa569; stroke:none;" d="M183 110L184 111L183 110z"/>
<path style="fill:#ffd7bb; stroke:none;" d="M88 111C90.3316 111.985 92.4567 111.981 95 112C92.6684 111.015 90.5434 111.019 88 111z"/>
<path style="fill:#ffd7be; stroke:none;" d="M113 111L114 112L113 111z"/>
<path style="fill:#ff9955; stroke:none;" d="M114 111L115 112L114 111z"/>
<path style="fill:#ffc49d; stroke:none;" d="M137 111L138 112L137 111z"/>
<path style="fill:#ffb98b; stroke:none;" d="M181 111L182 112L181 111z"/>
<path style="fill:#ffd1b2; stroke:none;" d="M71 112C73.3316 112.985 75.4566 112.981 78 113C75.6684 112.015 73.5434 112.019 71 112z"/>
<path style="fill:#ff9d5b; stroke:none;" d="M112 112L113 113L112 112z"/>
<path style="fill:#ffc096; stroke:none;" d="M139 112L140 113L139 112z"/>
<path style="fill:#ffc39b; stroke:none;" d="M179 112L180 113L179 112z"/>
<path style="fill:#ffb686; stroke:none;" d="M110 113L111 114L110 113z"/>
<path style="fill:#ffb887; stroke:none;" d="M141 113L142 114L141 113z"/>
<path style="fill:#ffb98b; stroke:none;" d="M177 113L178 114L177 113z"/>
<path style="fill:#ff9752; stroke:none;" d="M109 114L110 115L109 114z"/>
<path style="fill:#ff9852; stroke:none;" d="M143 114L144 115L143 114z"/>
<path style="fill:#ffcaa7; stroke:none;" d="M144 114L145 115L144 114z"/>
<path style="fill:#ffd0b2; stroke:none;" d="M174 114L175 115L174 114z"/>
<path style="fill:#ff9955; stroke:none;" d="M175 114L176 115L175 114z"/>
<path style="fill:#ffd5b8; stroke:none;" d="M45.3333 115.667C45.2777 115.722 45.2222 116.778 45.6667 116.333C45.7222 116.278 45.7778 115.222 45.3333 115.667z"/>
<path style="fill:#ff954d; stroke:none;" d="M146 115L147 116L146 115z"/>
<path style="fill:#ffe6d6; stroke:none;" d="M147.667 115.333C147.222 115.778 148.278 115.722 148.333 115.667C148.778 115.222 147.722 115.278 147.667 115.333z"/>
<path style="fill:#ffc8a4; stroke:none;" d="M171 115L172 116L171 115z"/>
<path style="fill:#ffb380; stroke:none;" d="M150.667 116.333C150.222 116.778 151.278 116.722 151.333 116.667C151.778 116.222 150.722 116.278 150.667 116.333z"/>
<path style="fill:#ffdec9; stroke:none;" d="M152.667 116.333C152.222 116.778 153.278 116.722 153.333 116.667C153.778 116.222 152.722 116.278 152.667 116.333z"/>
<path style="fill:#ffb481; stroke:none;" d="M166 116C167.248 116.685 167.548 116.749 169 117C167.752 116.315 167.452 116.251 166 116z"/>
<path style="fill:#ff8735; stroke:none;" d="M157 117C158.769 117.779 160.036 117.912 162 118C160.231 117.221 158.964 117.088 157 117z"/>
<path style="fill:#ffdfc9; stroke:none;" d="M44 119L44 125C44.9511 122.715 44.9511 121.285 44 119z"/>
<path style="fill:#ff964d; stroke:none;" d="M104 119L105 120L104 119z"/>
<path style="fill:#ffb07b; stroke:none;" d="M103 120L104 121L103 120z"/>
<path style="fill:#ff8f42; stroke:none;" d="M102 122L103 123L102 122z"/>
<path style="fill:#ffcaa6; stroke:none;" d="M101 123L102 124L101 123z"/>
<path style="fill:#ffc196; stroke:none;" d="M123 124C124.769 124.779 126.036 124.912 128 125C126.231 124.221 124.964 124.088 123 124z"/>
<path style="fill:#ff7f2a; stroke:none;" d="M189.667 124.333C189.222 124.778 190.278 124.722 190.333 124.667C190.778 124.222 189.722 124.278 189.667 124.333z"/>
<path style="fill:#ffd2b6; stroke:none;" d="M100 125L101 126L100 125z"/>
<path style="fill:#ff9d5d; stroke:none;" d="M120 125L121 126L120 125z"/>
<path style="fill:#ffbb8c; stroke:none;" d="M130 125L131 126L130 125z"/>
<path style="fill:#ffc7a2; stroke:none;" d="M188 125L189 126L188 125z"/>
<path style="fill:#ff9651; stroke:none;" d="M190 125L190 231C193.105 223.6 191 212.007 191 204L191 150C191 142.52 192.903 131.919 190 125z"/>
<path style="fill:#ff9a57; stroke:none;" d="M100 126L101 127L100 126z"/>
<path style="fill:#ffd0b2; stroke:none;" d="M119 126L120 127L119 126z"/>
<path style="fill:#ffaf7a; stroke:none;" d="M132 126L133 127L132 126z"/>
<path style="fill:#ffb687; stroke:none;" d="M186 126L187 127L186 126z"/>
<path style="fill:#ffb888; stroke:none;" d="M134 127L135 128L134 127z"/>
<path style="fill:#ffbd91; stroke:none;" d="M184 127L185 128L184 127z"/>
<path style="fill:#ffd3b6; stroke:none;" d="M99 128L100 129L99 128z"/>
<path style="fill:#ffcca9; stroke:none;" d="M136 128L137 129L136 128z"/>
<path style="fill:#ff9853; stroke:none;" d="M137 128L138 129L137 128z"/>
<path style="fill:#ff9a58; stroke:none;" d="M181 128L182 129L181 128z"/>
<path style="fill:#ffe5d2; stroke:none;" d="M45.3333 129.667C45.2778 129.722 45.2222 130.778 45.6667 130.333C45.7223 130.278 45.7777 129.222 45.3333 129.667z"/>
<path style="fill:#ff8d41; stroke:none;" d="M99.3333 129.667C99.2778 129.722 99.2223 130.778 99.6667 130.333C99.7222 130.278 99.7778 129.222 99.3333 129.667z"/>
<path style="fill:#ffc195; stroke:none;" d="M139 129L140 130L139 129z"/>
<path style="fill:#ff9349; stroke:none;" d="M178 129L179 130L178 129z"/>
<path style="fill:#ffc299; stroke:none;" d="M179 129L180 130L179 129z"/>
<path style="fill:#000000; stroke:none;" d="M514 129C515.448 136.439 517.937 143.345 518 151C513.017 148.674 506.811 143.469 501.105 146.471C492.554 150.971 492.947 170.725 504.004 171.667C510.093 172.185 514.905 166.331 520 164C520.648 166.394 521.032 167.536 523 169C522.923 159.697 521.821 150.166 520.246 141C519.411 136.137 518.499 131.56 514 129z"/>
<path style="fill:#ffac76; stroke:none;" d="M115 130L116 131L115 130z"/>
<path style="fill:#ffc7a1; stroke:none;" d="M142 130L143 131L142 130z"/>
<path style="fill:#ff9c5a; stroke:none;" d="M175 130L176 131L175 130z"/>
<path style="fill:#ffe9dc; stroke:none;" d="M176.667 130.333C176.222 130.778 177.278 130.722 177.333 130.667C177.778 130.222 176.722 130.278 176.667 130.333z"/>
<path style="fill:#ffa162; stroke:none;" d="M146.667 131.333C146.222 131.778 147.278 131.722 147.333 131.667C147.778 131.222 146.722 131.278 146.667 131.333z"/>
<path style="fill:#ffa365; stroke:none;" d="M170 131C171.248 131.685 171.548 131.749 173 132C171.752 131.315 171.452 131.251 170 131z"/>
<path style="fill:#ffddc7; stroke:none;" d="M98 132L98 135C98.6961 133.446 98.6961 133.554 98 132z"/>
<path style="fill:#ffd4b8; stroke:none;" d="M150 132C151.248 132.685 151.548 132.749 153 133C151.752 132.315 151.452 132.251 150 132z"/>
<path style="fill:#ff8a3c; stroke:none;" d="M153 132C156.163 133.327 159.586 133 163 133C159.837 131.673 156.414 132 153 132z"/>
<path style="fill:#ffa668; stroke:none;" d="M163 132C164.248 132.685 164.548 132.749 166 133C164.752 132.315 164.452 132.251 163 132z"/>
<path style="fill:#ffd6ba; stroke:none;" d="M166.667 132.333C166.222 132.778 167.278 132.722 167.333 132.667C167.778 132.222 166.722 132.278 166.667 132.333z"/>
<path style="fill:#ffcfae; stroke:none;" d="M114.333 133.667C114.278 133.722 114.222 134.778 114.667 134.333C114.722 134.278 114.778 133.222 114.333 133.667z"/>
<path style="fill:#ffb585; stroke:none;" d="M98 135L98 138C98.6961 136.446 98.6961 136.554 98 135z"/>
<path style="fill:#000000; stroke:none;" d="M470 135L470 148L463 149C465.585 150.768 467.884 150.928 471 151C469.906 156.892 468.677 167.948 474 172C473.828 163.657 468.89 150.394 481 150C478.415 148.231 476.116 148.072 473 148C473 143.503 473.899 137.968 470 135M484 136L484 138L486 138C485.455 136.365 485.635 136.545 484 136z"/>
<path style="fill:#ff8b3e; stroke:none;" d="M98.3333 138.667C98.2778 138.722 98.2223 139.778 98.6667 139.333C98.7222 139.278 98.7778 138.222 98.3333 138.667z"/>
<path style="fill:#000000; stroke:none;" d="M278 138L278 172C282.194 165.861 280.036 154.236 279.999 147C279.982 143.586 279.941 140.841 278 138z"/>
<path style="fill:#ffb27d; stroke:none;" d="M113 140L113 146C113.951 143.715 113.951 142.285 113 140z"/>
<path style="fill:#000000; stroke:none;" d="M428 170C421.334 167.397 413.227 171.354 407.573 164.775C402.265 158.601 404.672 142.435 414.985 143.186C420.113 143.559 421.86 149.144 418.678 152.786C415.632 156.274 411.339 156.898 407 157C411.074 158.709 416.205 158.177 419.656 155.196C423.643 151.752 423.678 145.077 418.786 142.322C412.311 138.675 405.362 145.064 403.638 151.001C400.893 160.454 406.145 169.954 416 171.67C420.2 172.401 424.039 171.256 428 170M315 166C319.693 171.456 328.015 173.095 334.999 171.656C338.899 170.852 343.409 167.574 341.573 163.055C339.068 156.888 330.25 158.186 325.001 156.861C322.543 156.241 319.313 154.908 318.921 152C318.476 148.701 322.412 147.307 325.001 147.128C329.388 146.825 331.814 148.786 332 153C337.565 144.919 319.052 141.692 316.712 150.054C315.935 152.831 317.787 155.382 320.109 156.686C325.34 159.624 333.121 157.456 337.663 161.703C340.313 164.181 338.716 167.29 335.941 168.821C332.57 170.68 327.564 170.218 324 169.211C320.928 168.344 318.075 166.879 315 166M371 166C375.502 171.541 383.095 172.877 390 171.786C393.867 171.175 398.416 168.605 397.623 164.015C395.962 154.389 380.765 160.347 375.623 154.347C373.442 151.803 375.345 148.686 378.059 147.604C381.651 146.172 385.622 147.769 389 149L388 153C393.157 145.105 375.487 141.936 372.623 149.225C371.592 151.847 373.02 154.688 375.148 156.258C380.168 159.962 388.073 157.114 392.677 161.514C395.495 164.207 394.344 167.831 390.941 169.258C387.804 170.574 383.216 170.233 380 169.387C376.911 168.575 374.026 167.015 371 166M559 166C563.489 171.667 571.021 172.892 577.999 171.786C582.123 171.133 586.939 167.938 585.214 163.104C582.928 156.699 573.238 158.188 568.001 156.745C565.613 156.088 562.314 154.858 561.921 151.989C561.468 148.679 565.43 147.333 568.001 147.124C572.633 146.749 575.272 148.541 576 153C579.442 143.831 561.83 142.155 560.377 150.104C559.855 152.958 561.693 155.477 564.059 156.836C569.046 159.701 576.386 157.413 580.677 161.514C583.496 164.207 582.343 167.831 578.941 169.258C575.804 170.573 571.216 170.233 568 169.387C564.911 168.575 562.026 167.015 559 166M435 149C435.34 156.918 436.148 164.595 439 172C441.549 165.751 435.795 159.158 439.742 153.019C443.746 146.793 450.126 146.85 453.995 153.019C457.367 158.393 457 164.926 457 171C463.716 166.255 457.757 149.404 450.957 146.746C445.594 144.65 440.427 149.325 435 149M487 146C487 154.783 486.513 163.75 490 172C492.652 165.666 489.667 152.183 487 146z"/>
<path style="fill:#ff9b58; stroke:none;" d="M98 147L98 150C98.6961 148.446 98.6961 148.554 98 147z"/>
<path style="fill:#000000; stroke:none;" d="M299 147.629C294.033 147.741 288.362 150.485 286.028 155.015C281.914 163 288.433 172.075 297 171.863C302.059 171.738 307.371 168.872 309.258 163.996C311.971 156.985 306.991 147.448 299 147.629M542 147.573C537.173 147.933 531.584 150.614 529.318 155.04C525.022 163.43 532.036 172.455 541 171.775C546.672 171.344 552.16 167.79 553.402 161.999C554.817 155.399 549.07 147.044 542 147.573z"/>
<path style="fill:#ffd2b6; stroke:none;" d="M114 148L115 149L114 148z"/>
<path style="fill:none; stroke:none;" d="M504.043 148.668C493.566 151.822 495.919 172.059 508 168.346C512.609 166.93 517.627 162.154 517.638 157.015C517.651 151.225 509.025 147.169 504.043 148.668z"/>
<path style="fill:#ff9853; stroke:none;" d="M114 149L115 150L114 149z"/>
<path style="fill:none; stroke:none;" d="M298 149.83C284.859 149.084 281.279 168.369 295 169.743C308.595 171.105 313.472 150.709 298 149.83M541 149.797C527.898 149.929 525.005 169.557 539 169.802C552.995 170.046 556.28 149.643 541 149.797z"/>
<path style="fill:#ff9c5a; stroke:none;" d="M115 151L116 152L115 151z"/>
<path style="fill:#ff9044; stroke:none;" d="M99 152L100 153L99 152z"/>
<path style="fill:#ffd0b0; stroke:none;" d="M116 152L117 153L116 152z"/>
<path style="fill:#ffcead; stroke:none;" d="M87 153L87 158C87.8299 155.969 87.8299 155.03 87 153z"/>
<path style="fill:#ffbd90; stroke:none;" d="M99 153L100 154L99 153z"/>
<path style="fill:#ff9047; stroke:none;" d="M117 154L118 155L117 154z"/>
<path style="fill:#ff9a57; stroke:none;" d="M100 155L101 156L100 155z"/>
<path style="fill:#ff8f44; stroke:none;" d="M118 155L119 156L118 155z"/>
<path style="fill:#ffb887; stroke:none;" d="M121 157L122 158L121 157z"/>
<path style="fill:#ffcfae; stroke:none;" d="M101 158L102 159L101 158z"/>
<path style="fill:#ffd5b8; stroke:none;" d="M123 158L124 159L123 158z"/>
<path style="fill:#ff9149; stroke:none;" d="M102 159L103 160L102 159z"/>
<path style="fill:#ffa366; stroke:none;" d="M124 159L125 160L124 159z"/>
<path style="fill:#ffcfb0; stroke:none;" d="M126 160L127 161L126 160z"/>
<path style="fill:#ffb98a; stroke:none;" d="M103 161L104 162L103 161z"/>
<path style="fill:#ffa76c; stroke:none;" d="M127 161L128 162L127 161z"/>
<path style="fill:#ff9046; stroke:none;" d="M104 162L105 163L104 162z"/>
<path style="fill:#ffcfb1; stroke:none;" d="M77 163C78.7691 163.779 80.0359 163.912 82 164C80.231 163.221 78.964 163.088 77 163z"/>
<path style="fill:#ffc49f; stroke:none;" d="M130 163L131 164L130 163z"/>
<path style="fill:#ffad76; stroke:none;" d="M131 164L132 165L131 164z"/>
<path style="fill:#ffd6bb; stroke:none;" d="M106 165L107 166L106 165z"/>
<path style="fill:#ff964f; stroke:none;" d="M132 165L133 166L132 165z"/>
<path style="fill:#ffd3b6; stroke:none;" d="M107 166L108 167L107 166z"/>
<path style="fill:#ff8f45; stroke:none;" d="M110 168L111 169L110 168z"/>
<path style="fill:#ffb482; stroke:none;" d="M111 169L112 170L111 169z"/>
<path style="fill:#ffbc8f; stroke:none;" d="M114 171L115 172L114 171z"/>
<path style="fill:#ff954d; stroke:none;" d="M116 172L117 173L116 172z"/>
<path style="fill:#ffc39b; stroke:none;" d="M117 173L118 174L117 173z"/>
<path style="fill:#ff9651; stroke:none;" d="M140 173L141 174L140 173z"/>
<path style="fill:#ffccaa; stroke:none;" d="M91 174C92.769 174.779 94.0359 174.912 96 175C94.231 174.221 92.964 174.088 91 174z"/>
<path style="fill:#ff9046; stroke:none;" d="M119 174L120 175L119 174z"/>
<path style="fill:#ffb07b; stroke:none;" d="M141 174L142 175L141 174z"/>
<path style="fill:#ffbc8f; stroke:none;" d="M90.189 175.742C85.3363 177.881 84.2859 186.507 82.5756 191C79.6126 198.784 75.7612 205.866 69.8295 211.83C65.5597 216.123 57.9882 220.215 55.7461 226.039C53.0649 233.005 59.7349 237.459 66 235.436C70.321 234.041 73.6753 230.188 76.9992 227.282C87.4668 218.13 93.9374 207.072 98.3326 194C100.472 187.638 104.351 175.833 94.0031 175.103C92.7684 175.015 91.323 175.242 90.189 175.742z"/>
<path style="fill:#ffb07a; stroke:none;" d="M120 175L121 176L120 175z"/>
<path style="fill:#ffc9a6; stroke:none;" d="M142 175L143 176L142 175z"/>
<path style="fill:#ffcba9; stroke:none;" d="M121 176L122 177L121 176z"/>
<path style="fill:#ff8f44; stroke:none;" d="M143 177L144 178L143 177z"/>
<path style="fill:#ffb27f; stroke:none;" d="M144 178L145 179L144 178z"/>
<path style="fill:#ffd0b2; stroke:none;" d="M101 179L101 184C101.83 181.97 101.83 181.03 101 179z"/>
<path style="fill:#ffbd90; stroke:none;" d="M146 181L147 182L146 181z"/>
<path style="fill:#ffd6bb; stroke:none;" d="M85.3333 182.667C85.2778 182.722 85.2222 183.778 85.6667 183.333C85.7222 183.278 85.7778 182.222 85.3333 182.667z"/>
<path style="fill:#ffd8be; stroke:none;" d="M128 183L129 184L128 183z"/>
<path style="fill:#ffa466; stroke:none;" d="M147 183L148 184L147 183z"/>
<path style="fill:#ffc8a3; stroke:none;" d="M129 184L130 185L129 184z"/>
<path style="fill:#ffa86f; stroke:none;" d="M130 185L131 186L130 185z"/>
<path style="fill:#ff9349; stroke:none;" d="M148 185L149 186L148 185z"/>
<path style="fill:#ffd6b9; stroke:none;" d="M149 186L150 187L149 186z"/>
<path style="fill:#ffb380; stroke:none;" d="M132 188L133 189L132 188z"/>
<path style="fill:#ffd7be; stroke:none;" d="M150 188L151 189L150 188z"/>
<path style="fill:#ff9a53; stroke:none;" d="M150 189L151 190L150 189z"/>
<path style="fill:#ffd4b7; stroke:none;" d="M133 190L134 191L133 190z"/>
<path style="fill:#ff9752; stroke:none;" d="M134 191L135 192L134 191z"/>
<path style="fill:#ffac75; stroke:none;" d="M151 191L152 192L151 191z"/>
<path style="fill:#ffa162; stroke:none;" d="M135 193L136 194L135 193z"/>
<path style="fill:#ffcdac; stroke:none;" d="M152 193L153 194L152 193z"/>
<path style="fill:#ff9b58; stroke:none;" d="M152 194L153 195L152 194z"/>
<path style="fill:#ffa264; stroke:none;" d="M136 195L137 196L136 195z"/>
<path style="fill:#ffc8a4; stroke:none;" d="M153 196L154 197L153 196z"/>
<path style="fill:#ff8e43; stroke:none;" d="M137 197L138 198L137 197z"/>
<path style="fill:#ff9b58; stroke:none;" d="M153 197L154 198L153 197z"/>
<path style="fill:#ffc59d; stroke:none;" d="M137 198L138 199L137 198z"/>
<path style="fill:#ffd3b3; stroke:none;" d="M154 199L155 200L154 199z"/>
<path style="fill:#ff9955; stroke:none;" d="M138 200L139 201L138 200z"/>
<path style="fill:#ff8735; stroke:none;" d="M154.333 200.667C154.278 200.722 154.222 201.778 154.667 201.333C154.722 201.278 154.778 200.222 154.333 200.667z"/>
<path style="fill:#ff964f; stroke:none;" d="M139 203L140 204L139 203z"/>
<path style="fill:#ffba8e; stroke:none;" d="M155.333 203.667C155.278 203.722 155.222 204.778 155.667 204.333C155.722 204.278 155.778 203.222 155.333 203.667z"/>
<path style="fill:#ffdcc5; stroke:none;" d="M139.333 204.667C139.278 204.722 139.222 205.778 139.667 205.333C139.722 205.278 139.778 204.222 139.333 204.667z"/>
<path style="fill:#ff8433; stroke:none;" d="M155.333 205.667C155.278 205.722 155.222 206.778 155.667 206.333C155.722 206.278 155.778 205.222 155.333 205.667z"/>
<path style="fill:#ffa466; stroke:none;" d="M140.333 207.667C140.278 207.722 140.222 208.778 140.667 208.333C140.722 208.278 140.778 207.222 140.333 207.667z"/>
<path style="fill:#ffe8d8; stroke:none;" d="M156 207L156 210C156.696 208.446 156.696 208.554 156 207z"/>
<path style="fill:#ffd1b4; stroke:none;" d="M140.333 209.667C140.278 209.722 140.222 210.778 140.667 210.333C140.722 210.278 140.778 209.222 140.333 209.667z"/>
<path style="fill:#ffba8c; stroke:none;" d="M156 210L156 213C156.696 211.446 156.696 211.554 156 210z"/>
<path style="fill:#ff9047; stroke:none;" d="M156 213L156 216C156.696 214.446 156.696 214.554 156 213z"/>
<path style="fill:#ff9e5d; stroke:none;" d="M141.333 216.667C141.278 216.722 141.222 217.778 141.667 217.333C141.722 217.278 141.778 216.222 141.333 216.667z"/>
<path style="fill:#ffb786; stroke:none;" d="M141.333 218.667C141.278 218.722 141.222 219.778 141.667 219.333C141.722 219.278 141.778 218.222 141.333 218.667z"/>
<path style="fill:#ffdfca; stroke:none;" d="M157 218L157 221C157.696 219.446 157.696 219.554 157 218z"/>
<path style="fill:#ffe5d4; stroke:none;" d="M141 220L141 224C141.71 222.241 141.71 221.759 141 220z"/>
<path style="fill:#ffbd93; stroke:none;" d="M157.333 221.667C157.278 221.722 157.222 222.778 157.667 222.333C157.722 222.278 157.778 221.222 157.333 221.667z"/>
<path style="fill:#ffa365; stroke:none;" d="M157.333 223.667C157.278 223.722 157.222 224.778 157.667 224.333C157.722 224.278 157.778 223.222 157.333 223.667z"/>
<path style="fill:#ff781d; stroke:none;" d="M157 225L157 231C157.951 228.715 157.951 227.285 157 225z"/>
<path style="fill:#ff9957; stroke:none;" d="M142 227L142 230C142.696 228.446 142.696 228.554 142 227z"/>
<path style="fill:#ffe3d1; stroke:none;" d="M142.333 230.667C142.278 230.722 142.222 231.778 142.667 231.333C142.722 231.278 142.778 230.222 142.333 230.667z"/>
<path style="fill:#ffb685; stroke:none;" d="M157 231L158 232L157 231z"/>
<path style="fill:#ffc8a4; stroke:none;" d="M205 231L206 232L205 231z"/>
<path style="fill:#ff9c59; stroke:none;" d="M143 232L144 233L143 232z"/>
<path style="fill:#ff8d41; stroke:none;" d="M191 232L192 233L191 232z"/>
<path style="fill:#ffb989; stroke:none;" d="M156 233L157 234L156 233z"/>
<path style="fill:#ffd8be; stroke:none;" d="M191 233L192 234L191 233z"/>
<path style="fill:#ffc7a2; stroke:none;" d="M204 233L205 234L204 233z"/>
<path style="fill:#ffd3b6; stroke:none;" d="M144 234L145 235L144 234z"/>
<path style="fill:#ffaa70; stroke:none;" d="M155 234L156 235L155 234z"/>
<path style="fill:#ffcba8; stroke:none;" d="M192 234L193 235L192 234z"/>
<path style="fill:#ffb280; stroke:none;" d="M203 234L204 235L203 234z"/>
<path style="fill:#ffc195; stroke:none;" d="M154 235L155 236L154 235z"/>
<path style="fill:#ffdac0; stroke:none;" d="M193 235L194 236L193 235z"/>
<path style="fill:#ffcfae; stroke:none;" d="M202 235L203 236L202 235z"/>
<path style="fill:#ffd1b3; stroke:none;" d="M60 236C61.769 236.779 63.0359 236.912 65 237C63.231 236.221 61.9641 236.088 60 236z"/>
<path style="fill:#ffd4b8; stroke:none;" d="M147 236L148 237L147 236z"/>
<path style="fill:#ff9650; stroke:none;" d="M148 236C149.506 236.683 150.315 236.826 152 237C150.494 236.317 149.685 236.174 148 236z"/>
<path style="fill:#ffc8a2; stroke:none;" d="M152 236L153 237L152 236z"/>
<path style="fill:#ffd7bd; stroke:none;" d="M195 236L196 237L195 236z"/>
<path style="fill:#ff9d59; stroke:none;" d="M196 236C197.506 236.683 198.315 236.826 200 237C198.494 236.317 197.685 236.174 196 236z"/>
</svg>
